<?xml version="1.0" encoding="utf-8"?>
<!-- Generator: Adobe Illustrator 22.1.0, SVG Export Plug-In . SVG Version: 6.00 Build 0)  -->
<svg version="1.1" id="Logo" xmlns="http://www.w3.org/2000/svg" xmlns:xlink="http://www.w3.org/1999/xlink" x="0px" y="0px"
	 viewBox="0 0 1040 1040" style="enable-background:new 0 0 1040 1040;" xml:space="preserve">
<style type="text/css">
	.st0{fill:#59A3D3;}
</style>
<g>
	<path class="st0" d="M846.4,606.1H825h-12.5H800l-7.2,10.3l-7.2,10.3l-65,93.1c-15.7,22.4-25.6,35.1-32.3,41.2
		c-3.7,3.3-4.4,3.3-6.8,3.3H498.8c14.3-76.8,35.3-179.7,56.5-276.9c34-155.9,49.7-210.7,55.3-228.1c15.2-9,34.2-16.7,63.1-28.5
		c11.3-4.6,24.2-9.8,38.6-15.8l14.7-6.2l14.7-6.2v-16v-16V155v-25.8v-25.8l-25.7,1.9l-25.7,1.9l-2.9,0.2
		c-61,4.4-118.6,8.6-177.6,8.6c-65.8,0-135.2-4.7-196.4-8.9l-25.6-1.7l-25.6-1.7v25.7V155v15.7v15.9v15.9l14.7,6.2l14.7,6.2
		c9.4,4,17.9,7.5,26.2,11c20.3,8.5,36.4,15.2,48,20.7c-6.8,38.8-24.8,126.5-53.3,254.1c-30.5,135.9-57,245.4-68,281
		c-1.7,1-4,2.4-7.1,4c-10.1,5.4-24,11.7-40,19.1c-7.6,3.5-15.6,7.1-24,11.1l-13.8,6.5l-13.8,6.5V844v15.3V875v25.1v25.1l25.1-1.1
		l25.1-1.1l0.6,0c98.5-4.4,200.4-8.9,298.9-8.9c99.6,0,200.4,4.5,297.8,8.9l0.6,0l20.3,0.9l20.3,0.9l4.2-19.9l4.2-19.9
		c2.5-11.8,5-23.8,7.5-35.4l0-0.2c12.6-60.3,25.7-122.7,42.3-182.5l8.4-30.4l8.4-30.4h-31.6H846.4z M795.9,875
		c-99.8-4.5-199.6-9-300.6-9c-99.8,0-200.8,4.5-301.7,9v-15.7c50.5-23.6,87.5-38.1,93.1-52.7c21.3-56.1,130.1-543.9,130.1-578.7
		c0-14.6-34.8-26.9-106.5-57.2V155c66.2,4.5,133.5,9,199.6,9c61.7,0,122.2-4.5,183.9-9v15.7c-61.7,25.8-93.1,35.9-121.1,56.1
		C557,238,468.4,652.9,441.5,812.2h240c29.2,0,44.9-16.8,78.5-65l65-93.1h21.3C826.2,727,811.6,801,795.9,875z"/>
	<path class="st0" d="M1000,0H40C17.9,0,0,17.9,0,40v960c0,22.1,17.9,40,40,40h960c22.1,0,40-17.9,40-40V40
		C1040,17.9,1022.1,0,1000,0z M932.6,612.5l-8.4,30.4l-8.4,30.4c-16.4,59-29.3,121-41.9,181l0,0.2c-2.4,11.6-4.9,23.5-7.5,35.5
		l-4.2,19.9l-4.2,19.9l-4.2,19.9l-20.3-0.9l-20.3-0.9l-20.3-0.9l-0.6,0c-97.1-4.4-197.6-8.9-296.7-8.9c-98,0-199.6,4.5-297.9,8.9
		l-0.6,0l-25.1,1.1l-25.1,1.1l-25.1,1.1v-25.1v-25.1V875v-15.7V844v-15.3v-15.3l13.8-6.5l13.8-6.5l13.8-6.5
		c8.5-4,16.4-7.6,24.1-11.1l0.1-0.1c14.7-6.7,27.5-12.6,36.9-17.5c12.2-42.6,37-145.7,64.8-270c25.4-113.2,41.7-192,49.8-234.6
		c-8.6-3.7-18.8-7.9-30.3-12.7l-0.1,0c-8.3-3.4-16.8-7-26.2-11l-14.7-6.2l-14.7-6.2l-14.7-6.2v-15.9v-15.9v-15.9V155v-25.7v-25.7
		V77.9l25.6,1.7l25.6,1.7l25.6,1.7C376,87.3,444.9,92,509.9,92c58.1,0,115.3-4.2,175.8-8.6l2.9-0.2l25.7-1.9l25.7-1.9l25.7-1.9v25.8
		v25.8V155v15.7v16v16v16l-14.7,6.2l-14.7,6.2l-14.7,6.2c-14.5,6.1-27.4,11.3-38.8,15.9c-22.9,9.3-39.4,16-52.1,22.5
		c-7,23.7-22.5,82.1-52,216.9c-18.5,84.6-37,174.8-51,247.7h147.3c5.5-6,14.2-17.5,25.9-34.3l65-93.1l7.2-10.3l7.2-10.3l7.2-10.3
		H800h12.5H825h21.3h31.6h31.6H941L932.6,612.5z"/>
</g>
</svg>
